<?xml version="1.0" encoding="UTF-8"?>
<svg id="Logo" xmlns="http://www.w3.org/2000/svg" viewBox="0 0 1000 1000">
  <defs>
    <style>
      .cls-1, .cls-2 {
        fill: #fff;
      }

      .cls-3 {
        opacity: .5;
      }

      .cls-2 {
        font-family: FreestyleScript-Regular, 'Freestyle Script';
        font-size: 329.88px;
      }

      .cls-4 {
        opacity: .75;
      }
    </style>
  </defs>
  <g id="M">
    <g class="cls-3">
      <path class="cls-1" d="m338.64,831.31c-13.17,0-26.57-8.2-36.39-22.47-14.06-20.42-19.79-48.22-16.13-78.3,3.48-28.62,13.75-55.72,23.97-81.02,30.63-75.8,66.02-147.81,93.42-202.08,15.78-31.25,31.9-62.74,47.9-93.59l1.41-2.71c14.95-28.81,30.41-58.59,36.69-90.65.91-4.67.39-6.53.21-6.98-3.6-1.46-18.22,4.3-32.17,14.16-57.79,40.81-96.97,104.33-134.86,165.75-8.9,14.42-18.1,29.34-27.27,43.49-3.49,5.39-6.84,10.9-10.38,16.73-14.35,23.66-29.19,48.12-53.65,62.77-8.52,5.1-18.89,5.38-27.75.74-8.83-4.62-14.49-13.27-15.15-23.13-3-44.81,33.09-134.23,60.89-195.6-55.17,72.27-105.76,145.38-153.67,222.01-2.19,3.51-6.82,4.58-10.33,2.38-3.51-2.2-4.58-6.82-2.38-10.33,59.6-95.34,123.31-185.23,194.79-274.82,2.41-3.09,6.83-3.93,10.21-1.9,3.49,2.1,4.79,6.59,2.96,10.22-9.4,18.72-91.68,184.67-87.5,247.04.31,4.61,2.98,8.67,7.14,10.84,4.19,2.2,9.08,2.08,13.08-.32,21.27-12.74,35.13-35.59,48.53-57.68,3.44-5.67,7-11.54,10.62-17.12,9.08-14,18.24-28.84,27.09-43.2,38.68-62.71,78.67-127.55,138.97-170.13,8.01-5.66,35.24-23.42,49.1-14.44,6.25,4.05,8.35,11.59,6.23,22.4-6.69,34.17-22.65,64.93-38.09,94.68l-1.4,2.71c-15.98,30.8-32.06,62.24-47.82,93.45-27.27,54.01-62.48,125.65-92.9,200.94-9.85,24.37-19.74,50.4-22.99,77.21-3.21,26.44,1.62,50.59,13.6,67.99,5.76,8.37,15.56,16.94,25.72,15.89,4.92-.51,10.11-3.25,15.43-8.13,16.26-14.93,25.28-39.1,33.24-60.43,1.45-3.88,5.77-5.85,9.65-4.4,3.88,1.45,5.85,5.77,4.4,9.65-8.55,22.9-18.24,48.87-37.15,66.23-7.75,7.12-15.83,11.15-24.03,12-1.07.11-2.15.17-3.23.17Z"/>
    </g>
    <g class="cls-4">
      <path class="cls-1" d="m331.32,819.23c-13.17,0-26.57-8.2-36.39-22.47-14.06-20.42-19.79-48.23-16.13-78.3,3.48-28.63,13.75-55.72,23.97-81.02,30.64-75.8,66.02-147.81,93.42-202.08,15.77-31.24,31.89-62.73,47.9-93.59l1.41-2.71c14.95-28.81,30.41-58.59,36.69-90.65.91-4.67.39-6.53.21-6.98-3.6-1.46-18.22,4.3-32.17,14.16-57.79,40.81-96.97,104.33-134.86,165.75-8.9,14.42-18.1,29.34-27.27,43.49-3.49,5.39-6.84,10.9-10.38,16.73-14.35,23.66-29.19,48.12-53.65,62.77-8.52,5.1-18.89,5.38-27.75.74-8.83-4.62-14.49-13.27-15.15-23.13-3-44.81,33.09-134.23,60.89-195.6-55.17,72.27-105.76,145.38-153.67,222.01-2.2,3.51-6.82,4.58-10.33,2.38-3.51-2.2-4.58-6.82-2.38-10.33,59.6-95.33,123.31-185.23,194.79-274.82,2.41-3.09,6.82-3.93,10.21-1.9,3.49,2.1,4.79,6.59,2.97,10.23-9.4,18.72-91.68,184.66-87.5,247.04.31,4.61,2.98,8.67,7.14,10.84,4.19,2.2,9.09,2.08,13.08-.32,21.27-12.74,35.13-35.59,48.54-57.69,3.44-5.67,7-11.54,10.62-17.12,9.08-14,18.24-28.84,27.09-43.2,38.68-62.71,78.67-127.55,138.97-170.13,8.01-5.66,35.24-23.42,49.1-14.44,6.25,4.05,8.35,11.59,6.23,22.4-6.69,34.17-22.65,64.93-38.09,94.67l-1.41,2.71c-15.98,30.82-32.07,62.26-47.82,93.45-27.27,54.01-62.48,125.65-92.9,200.94-9.85,24.37-19.74,50.4-22.99,77.21-3.21,26.44,1.62,50.59,13.6,67.99,5.76,8.37,15.54,16.94,25.72,15.89,4.92-.51,10.11-3.25,15.43-8.13,16.26-14.93,25.28-39.1,33.24-60.43,1.45-3.88,5.77-5.85,9.65-4.4,3.88,1.45,5.85,5.77,4.4,9.65-8.55,22.91-18.24,48.87-37.15,66.23-7.75,7.11-15.83,11.15-24.03,12-1.08.11-2.16.17-3.24.17Z"/>
    </g>
    <path class="cls-1" d="m322.73,807.34c-13.17,0-26.57-8.2-36.39-22.47-14.06-20.42-19.79-48.22-16.13-78.3,3.48-28.62,13.75-55.72,23.97-81.02,30.63-75.8,66.02-147.81,93.42-202.08,15.77-31.23,31.88-62.72,47.9-93.59l1.41-2.72c14.95-28.8,30.41-58.59,36.68-90.64.91-4.67.39-6.53.21-6.98-3.6-1.46-18.22,4.3-32.17,14.16-57.79,40.81-96.97,104.33-134.85,165.75-8.9,14.43-18.1,29.34-27.27,43.49-3.49,5.39-6.84,10.9-10.38,16.73-14.35,23.66-29.19,48.12-53.65,62.77-8.51,5.1-18.89,5.38-27.75.74-8.83-4.62-14.49-13.27-15.16-23.13-3-44.81,33.09-134.23,60.89-195.6-55.17,72.27-105.76,145.37-153.67,222.01-2.19,3.51-6.82,4.58-10.33,2.38-3.51-2.2-4.58-6.82-2.38-10.33,59.6-95.34,123.32-185.24,194.79-274.83,2.41-3.08,6.82-3.92,10.21-1.89,3.49,2.1,4.79,6.59,2.96,10.22-9.4,18.72-91.68,184.67-87.5,247.04.31,4.61,2.98,8.67,7.14,10.84,4.19,2.19,9.08,2.07,13.08-.32,21.27-12.74,35.13-35.59,48.54-57.68,3.44-5.67,7-11.54,10.62-17.12,9.08-14,18.24-28.85,27.09-43.2,38.68-62.71,78.67-127.55,138.97-170.13,8.01-5.66,35.24-23.42,49.1-14.44,6.25,4.05,8.35,11.59,6.23,22.4-6.69,34.17-22.65,64.93-38.09,94.67l-1.41,2.71c-15.99,30.83-32.08,62.27-47.82,93.45-27.27,54.01-62.48,125.66-92.9,200.94-9.85,24.37-19.74,50.4-22.99,77.21-3.21,26.44,1.62,50.59,13.6,67.99,5.76,8.37,15.54,16.94,25.72,15.89,4.92-.51,10.11-3.25,15.43-8.13,16.26-14.93,25.28-39.1,33.24-60.43,1.45-3.88,5.77-5.85,9.65-4.4,3.88,1.45,5.85,5.77,4.4,9.65-8.55,22.91-18.24,48.87-37.15,66.23-7.75,7.11-15.83,11.15-24.03,12-1.08.11-2.16.17-3.24.17Z"/>
  </g>
  <text class="cls-2" transform="translate(468.24 443.32)"><tspan x="0" y="0">akeup</tspan></text>
  <text class="cls-2" transform="translate(441.26 681.22)"><tspan x="0" y="0">atchr</tspan></text>
</svg>