<?xml version="1.0" encoding="UTF-8"?>
<svg id="Icon" xmlns="http://www.w3.org/2000/svg" viewBox="0 0 1000 1000">
  <defs>
    <style>
      .cls-1 {
        fill: #fff;
      }

      .cls-2 {
        opacity: .5;
      }

      .cls-3 {
        opacity: .75;
      }
    </style>
  </defs>
  <g id="M">
    <g class="cls-2">
      <path class="cls-1" d="m583.5,984.3c-20.69,0-41.73-12.88-57.15-35.28-22.07-32.06-31.07-75.73-25.33-122.97,5.46-44.95,21.59-87.5,37.65-127.23,48.1-119.01,103.66-232.11,146.7-317.34,24.77-49.06,50.08-98.51,75.22-146.98l2.21-4.27c23.47-45.23,47.75-92.01,57.6-142.34,1.44-7.33.61-10.25.33-10.96-5.64-2.29-28.61,6.76-50.52,22.24-90.76,64.09-152.28,163.83-211.77,260.29-13.97,22.65-28.42,46.08-42.83,68.29-5.49,8.46-10.74,17.12-16.3,26.28-22.54,37.15-45.84,75.57-84.25,98.58-13.38,8.01-29.66,8.45-43.57,1.17-13.86-7.26-22.76-20.84-23.8-36.33-4.71-70.37,51.96-210.79,95.62-307.17-86.64,113.49-166.08,228.29-241.32,348.64-3.45,5.52-10.71,7.2-16.23,3.74-5.52-3.45-7.19-10.72-3.74-16.23,93.6-149.71,193.65-290.88,305.89-431.57,3.78-4.85,10.71-6.17,16.03-2.98,5.48,3.29,7.53,10.34,4.66,16.06-14.76,29.39-143.97,289.99-137.41,387.94.48,7.24,4.68,13.61,11.22,17.03,6.59,3.45,14.27,3.26,20.55-.5,33.4-20.01,55.17-55.88,76.22-90.58,5.41-8.91,11-18.13,16.68-26.88,14.27-21.99,28.64-45.3,42.54-67.84,60.74-98.47,123.54-200.29,218.23-267.16,12.58-8.89,55.33-36.79,77.11-22.68,9.82,6.36,13.12,18.2,9.79,35.18-10.51,53.66-35.57,101.96-59.81,148.67l-2.21,4.26c-25.1,48.39-50.37,97.76-75.1,146.75-42.83,84.82-98.12,197.34-145.89,315.55-15.46,38.26-30.99,79.15-36.1,121.24-5.04,41.53,2.54,79.45,21.35,106.77,9.05,13.15,24.41,26.6,40.4,24.95,7.72-.8,15.88-5.1,24.24-12.77,25.54-23.45,39.71-61.41,52.21-94.9,2.27-6.09,9.06-9.2,15.15-6.91,6.09,2.27,9.19,9.06,6.91,15.15-13.42,35.97-28.64,76.74-58.34,104.01-12.17,11.17-24.87,17.52-37.74,18.85-1.69.17-3.38.26-5.08.26Z"/>
    </g>
    <g class="cls-3">
      <path class="cls-1" d="m571.99,965.33c-20.68,0-41.72-12.88-57.15-35.28-22.07-32.06-31.07-75.73-25.33-122.97,5.46-44.95,21.59-87.5,37.65-127.23,48.11-119.03,103.67-232.12,146.7-317.34,24.83-49.16,50.13-98.61,75.22-146.98l2.22-4.27c23.47-45.23,47.75-92,57.6-142.34,1.44-7.33.61-10.25.33-10.96-5.65-2.29-28.61,6.76-50.53,22.24-90.76,64.09-152.28,163.83-211.78,260.29-13.97,22.65-28.42,46.07-42.83,68.29-5.49,8.46-10.74,17.11-16.3,26.28-22.54,37.15-45.84,75.57-84.26,98.58-13.38,8.01-29.66,8.44-43.57,1.17-13.86-7.26-22.76-20.84-23.8-36.33-4.71-70.38,51.96-210.79,95.62-307.17-86.64,113.49-166.08,228.29-241.32,348.64-3.45,5.52-10.72,7.19-16.23,3.74-5.52-3.45-7.19-10.72-3.74-16.23,93.59-149.71,193.65-290.88,305.89-431.57,3.78-4.85,10.71-6.18,16.03-2.98,5.48,3.29,7.53,10.34,4.66,16.06-14.76,29.39-143.97,289.99-137.41,387.94.48,7.24,4.68,13.61,11.22,17.03,6.59,3.45,14.27,3.26,20.55-.5,33.4-20.01,55.17-55.89,76.22-90.59,5.4-8.91,10.99-18.12,16.67-26.88,14.26-21.99,28.64-45.3,42.54-67.84,60.74-98.47,123.55-200.3,218.24-267.17,12.58-8.89,55.33-36.78,77.11-22.68,9.82,6.36,13.12,18.2,9.79,35.18-10.51,53.66-35.57,101.96-59.81,148.66l-2.21,4.26c-25.04,48.29-50.31,97.66-75.1,146.75-42.83,84.81-98.11,197.32-145.89,315.55-15.46,38.27-30.99,79.15-36.1,121.24-5.04,41.53,2.54,79.45,21.35,106.77,9.05,13.15,24.43,26.6,40.4,24.95,7.73-.8,15.88-5.1,24.24-12.77,25.54-23.45,39.71-61.41,52.21-94.9,2.27-6.09,9.06-9.19,15.15-6.91,6.09,2.27,9.19,9.06,6.91,15.15-13.42,35.97-28.64,76.74-58.34,104.01-12.17,11.17-24.87,17.51-37.74,18.85-1.69.17-3.39.26-5.08.26Z"/>
    </g>
    <path class="cls-1" d="m558.51,946.67c-20.69,0-41.72-12.88-57.15-35.28-22.07-32.06-31.07-75.73-25.33-122.97,5.46-44.95,21.59-87.5,37.65-127.23,48.11-119.04,103.67-232.12,146.7-317.34,24.75-49.02,50.06-98.47,75.22-146.98l2.21-4.26c23.48-45.23,47.75-92.01,57.61-142.34,1.44-7.33.61-10.25.33-10.96-5.64-2.29-28.6,6.76-50.52,22.24-90.76,64.09-152.28,163.83-211.77,260.29-13.97,22.65-28.42,46.08-42.83,68.29-5.49,8.46-10.74,17.12-16.3,26.28-22.54,37.15-45.84,75.57-84.25,98.58-13.37,8.01-29.66,8.45-43.57,1.17-13.87-7.26-22.76-20.84-23.8-36.33-4.71-70.38,51.96-210.79,95.62-307.17-86.64,113.49-166.08,228.29-241.31,348.64-3.45,5.52-10.71,7.19-16.23,3.74-5.52-3.45-7.19-10.72-3.74-16.23,93.6-149.72,193.65-290.89,305.89-431.58,3.78-4.85,10.71-6.17,16.03-2.98,5.48,3.29,7.52,10.34,4.65,16.05-14.76,29.39-143.97,289.99-137.41,387.94.49,7.24,4.68,13.61,11.22,17.03,6.59,3.45,14.27,3.26,20.55-.51,33.4-20.01,55.17-55.89,76.22-90.58,5.41-8.91,11-18.13,16.68-26.88,14.26-21.99,28.64-45.3,42.54-67.84,60.74-98.47,123.54-200.3,218.23-267.16,12.58-8.89,55.34-36.79,77.11-22.68,9.82,6.36,13.12,18.2,9.79,35.18-10.51,53.66-35.57,101.96-59.82,148.67l-2.21,4.26c-25.12,48.44-50.39,97.81-75.1,146.75-42.82,84.81-98.11,197.31-145.89,315.55-15.46,38.27-30.99,79.15-36.1,121.24-5.04,41.53,2.54,79.45,21.35,106.77,9.05,13.15,24.39,26.61,40.4,24.95,7.73-.8,15.88-5.1,24.24-12.77,25.54-23.45,39.71-61.41,52.21-94.9,2.27-6.09,9.05-9.19,15.15-6.92,6.09,2.27,9.19,9.06,6.92,15.15-13.42,35.97-28.64,76.74-58.34,104.01-12.17,11.17-24.87,17.51-37.74,18.85-1.69.17-3.39.26-5.08.26Z"/>
  </g>
</svg>