<?xml version="1.0" encoding="UTF-8"?>
<svg id="Logo" xmlns="http://www.w3.org/2000/svg" viewBox="0 0 1000 1000">
  <defs>
    <style>
      .cls-1 {
        fill: #fff;
      }

      .cls-2 {
        opacity: .5;
      }

      .cls-3 {
        opacity: .75;
      }
    </style>
  </defs>
  <g id="M">
    <g class="cls-2">
      <path class="cls-1" d="m338.64,831.31c-13.17,0-26.57-8.2-36.39-22.47-14.06-20.42-19.79-48.22-16.13-78.3,3.48-28.62,13.75-55.72,23.97-81.02,30.63-75.8,66.02-147.81,93.42-202.08,15.78-31.25,31.9-62.74,47.9-93.59l1.41-2.71c14.95-28.81,30.41-58.59,36.69-90.65.91-4.67.39-6.53.21-6.98-3.6-1.46-18.22,4.3-32.17,14.16-57.79,40.81-96.97,104.33-134.86,165.75-8.9,14.42-18.1,29.34-27.27,43.49-3.49,5.39-6.84,10.9-10.38,16.73-14.35,23.66-29.19,48.12-53.65,62.77-8.52,5.1-18.89,5.38-27.75.74-8.83-4.62-14.49-13.27-15.15-23.13-3-44.81,33.09-134.23,60.89-195.6-55.17,72.27-105.76,145.38-153.67,222.01-2.19,3.51-6.82,4.58-10.33,2.38-3.51-2.2-4.58-6.82-2.38-10.33,59.6-95.34,123.31-185.23,194.79-274.82,2.41-3.09,6.83-3.93,10.21-1.9,3.49,2.1,4.79,6.59,2.96,10.22-9.4,18.72-91.68,184.67-87.5,247.04.31,4.61,2.98,8.67,7.14,10.84,4.19,2.2,9.08,2.08,13.08-.32,21.27-12.74,35.13-35.59,48.53-57.68,3.44-5.67,7-11.54,10.62-17.12,9.08-14,18.24-28.84,27.09-43.2,38.68-62.71,78.67-127.55,138.97-170.13,8.01-5.66,35.24-23.42,49.1-14.44,6.25,4.05,8.35,11.59,6.23,22.4-6.69,34.17-22.65,64.93-38.09,94.68l-1.4,2.71c-15.98,30.8-32.06,62.24-47.82,93.45-27.27,54.01-62.48,125.65-92.9,200.94-9.85,24.37-19.74,50.4-22.99,77.21-3.21,26.44,1.62,50.59,13.6,67.99,5.76,8.37,15.56,16.94,25.72,15.89,4.92-.51,10.11-3.25,15.43-8.13,16.26-14.93,25.28-39.1,33.24-60.43,1.45-3.88,5.77-5.85,9.65-4.4,3.88,1.45,5.85,5.77,4.4,9.65-8.55,22.9-18.24,48.87-37.15,66.23-7.75,7.12-15.83,11.15-24.03,12-1.07.11-2.15.17-3.23.17Z"/>
    </g>
    <g class="cls-3">
      <path class="cls-1" d="m331.32,819.23c-13.17,0-26.57-8.2-36.39-22.47-14.06-20.42-19.79-48.23-16.13-78.3,3.48-28.63,13.75-55.72,23.97-81.02,30.64-75.8,66.02-147.81,93.42-202.08,15.77-31.24,31.89-62.73,47.9-93.59l1.41-2.71c14.95-28.81,30.41-58.59,36.69-90.65.91-4.67.39-6.53.21-6.98-3.6-1.46-18.22,4.3-32.17,14.16-57.79,40.81-96.97,104.33-134.86,165.75-8.9,14.42-18.1,29.34-27.27,43.49-3.49,5.39-6.84,10.9-10.38,16.73-14.35,23.66-29.19,48.12-53.65,62.77-8.52,5.1-18.89,5.38-27.75.74-8.83-4.62-14.49-13.27-15.15-23.13-3-44.81,33.09-134.23,60.89-195.6-55.17,72.27-105.76,145.38-153.67,222.01-2.2,3.51-6.82,4.58-10.33,2.38-3.51-2.2-4.58-6.82-2.38-10.33,59.6-95.33,123.31-185.23,194.79-274.82,2.41-3.09,6.82-3.93,10.21-1.9,3.49,2.1,4.79,6.59,2.97,10.23-9.4,18.72-91.68,184.66-87.5,247.04.31,4.61,2.98,8.67,7.14,10.84,4.19,2.2,9.09,2.08,13.08-.32,21.27-12.74,35.13-35.59,48.54-57.69,3.44-5.67,7-11.54,10.62-17.12,9.08-14,18.24-28.84,27.09-43.2,38.68-62.71,78.67-127.55,138.97-170.13,8.01-5.66,35.24-23.42,49.1-14.44,6.25,4.05,8.35,11.59,6.23,22.4-6.69,34.17-22.65,64.93-38.09,94.67l-1.41,2.71c-15.98,30.82-32.07,62.26-47.82,93.45-27.27,54.01-62.48,125.65-92.9,200.94-9.85,24.37-19.74,50.4-22.99,77.21-3.21,26.44,1.62,50.59,13.6,67.99,5.76,8.37,15.54,16.94,25.72,15.89,4.92-.51,10.11-3.25,15.43-8.13,16.26-14.93,25.28-39.1,33.24-60.43,1.45-3.88,5.77-5.85,9.65-4.4,3.88,1.45,5.85,5.77,4.4,9.65-8.55,22.91-18.24,48.87-37.15,66.23-7.75,7.11-15.83,11.15-24.03,12-1.08.11-2.16.17-3.24.17Z"/>
    </g>
    <path class="cls-1" d="m322.73,807.34c-13.17,0-26.57-8.2-36.39-22.47-14.06-20.42-19.79-48.22-16.13-78.3,3.48-28.62,13.75-55.72,23.97-81.02,30.63-75.8,66.02-147.81,93.42-202.08,15.77-31.23,31.88-62.72,47.9-93.59l1.41-2.72c14.95-28.8,30.41-58.59,36.68-90.64.91-4.67.39-6.53.21-6.98-3.6-1.46-18.22,4.3-32.17,14.16-57.79,40.81-96.97,104.33-134.85,165.75-8.9,14.43-18.1,29.34-27.27,43.49-3.49,5.39-6.84,10.9-10.38,16.73-14.35,23.66-29.19,48.12-53.65,62.77-8.51,5.1-18.89,5.38-27.75.74-8.83-4.62-14.49-13.27-15.16-23.13-3-44.81,33.09-134.23,60.89-195.6-55.17,72.27-105.76,145.37-153.67,222.01-2.19,3.51-6.82,4.58-10.33,2.38-3.51-2.2-4.58-6.82-2.38-10.33,59.6-95.34,123.32-185.24,194.79-274.83,2.41-3.08,6.82-3.92,10.21-1.89,3.49,2.1,4.79,6.59,2.96,10.22-9.4,18.72-91.68,184.67-87.5,247.04.31,4.61,2.98,8.67,7.14,10.84,4.19,2.19,9.08,2.07,13.08-.32,21.27-12.74,35.13-35.59,48.54-57.68,3.44-5.67,7-11.54,10.62-17.12,9.08-14,18.24-28.85,27.09-43.2,38.68-62.71,78.67-127.55,138.97-170.13,8.01-5.66,35.24-23.42,49.1-14.44,6.25,4.05,8.35,11.59,6.23,22.4-6.69,34.17-22.65,64.93-38.09,94.67l-1.41,2.71c-15.99,30.83-32.08,62.27-47.82,93.45-27.27,54.01-62.48,125.66-92.9,200.94-9.85,24.37-19.74,50.4-22.99,77.21-3.21,26.44,1.62,50.59,13.6,67.99,5.76,8.37,15.54,16.94,25.72,15.89,4.92-.51,10.11-3.25,15.43-8.13,16.26-14.93,25.28-39.1,33.24-60.43,1.45-3.88,5.77-5.85,9.65-4.4,3.88,1.45,5.85,5.77,4.4,9.65-8.55,22.91-18.24,48.87-37.15,66.23-7.75,7.11-15.83,11.15-24.03,12-1.08.11-2.16.17-3.24.17Z"/>
  </g>
  <g>
    <path class="cls-1" d="m506.26,404.18c-3.54,6.23-7.03,11.49-10.47,15.79-6.77,8.38-13.48,12.56-20.13,12.56-5.8,0-10.31-2.74-13.53-8.21-2.04-3.54-3.06-7.73-3.06-12.56,0-11.92,3.76-25.07,11.27-39.46,8.38-16,18.47-28.29,30.28-36.89,7.73-5.58,15.19-8.38,22.39-8.38,4.51,0,8.27,1.4,11.28,4.19,2.58,2.47,3.87,5.26,3.87,8.38,0,2.36-.91,5.64-2.74,9.83,1.61,2.25,2.42,4.24,2.42,5.96,0,2.26-1.51,5.96-4.51,11.11-3.12,5.26-6.23,12.24-9.34,20.94-3.33,9.24-4.99,16.65-4.99,22.23,0,4.51,1.34,8.21,4.03,11.11.75.75,2.95,1.99,6.6,3.71,2.68,1.29,4.03,3.54,4.03,6.77,0,2.04-.75,3.7-2.25,4.99-1.61,1.4-3.49,2.09-5.64,2.09-5.8,0-10.79-2.58-14.98-7.73-3.44-4.19-5.15-9.45-5.15-15.79,0-2.15.21-5.69.64-10.63Zm20.13-52.99c-1.29-2.36-2.69-4.11-4.19-5.23-1.5-1.13-3.12-1.69-4.83-1.69-8.16,0-17.02,7.14-26.58,21.42-10.53,15.79-15.79,29.15-15.79,40.11,0,2.69.51,4.73,1.53,6.12,1.02,1.4,2.55,2.09,4.59,2.09,5.15,0,11.17-5.48,18.04-16.43,3.87-6.01,8.64-14.87,14.33-26.58,3.76-7.62,6.5-12.67,8.21-15.14.86-1.29,2.42-2.84,4.67-4.67Z"/>
    <path class="cls-1" d="m610.31,361.81c-6.98,17.29-10.47,30.44-10.47,39.46,0,4.4.86,8.05,2.58,10.95,2.15,3.65,4.99,5.48,8.54,5.48,7.3,0,15.73-4.88,25.29-14.66,6.33-6.23,11.65-12.56,15.95-19.01,2.79-4.29,5.42-6.44,7.89-6.44s3.7,1.24,3.7,3.71c0,4.08-4.94,12.46-14.82,25.13-14.61,18.79-28.78,28.19-42.52,28.19-8.27,0-14.12-4.03-17.56-12.08-2.58-5.9-3.87-12.13-3.87-18.69,0-5.48,1.29-13.58,3.87-24.32-6.98,5.8-17.56,19.97-31.73,42.52-3.76,6.12-7.19,9.18-10.31,9.18-1.61,0-3-.7-4.19-2.09-1.18-1.5-1.77-3-1.77-4.51,0-4.29,5.64-18.63,16.91-43.01,19.87-42.63,41.13-78.5,63.79-107.6,12.24-15.89,23.25-27.49,33.02-34.79,8.8-6.66,15.84-9.99,21.1-9.99,2.36,0,4.46.97,6.28,2.9,2.36,2.36,3.54,5.26,3.54,8.7,0,9.13-4.78,20.83-14.33,35.11-9.99,14.71-26.96,32.48-50.9,53.32-13.42,11.6-25.51,20.73-36.24,27.38-1.4,2.79-5.32,10.95-11.76,24.48,13.42-14.5,24.05-24.48,31.89-29.96,5.05-3.44,11.86-7.03,20.46-10.79,5.8-2.47,9.99-3.7,12.56-3.7,1.39,0,2.63.54,3.71,1.61,1.18.97,1.77,2.25,1.77,3.87,0,3.54-2.42,6.02-7.25,7.41-8.16,2.47-16.54,6.55-25.13,12.24Zm-13.85-27.71c17.61-11.6,34.04-26.36,49.29-44.3,7.62-8.91,13.74-17.5,18.36-25.77,3.22-5.8,4.83-9.93,4.83-12.4s-1.13-3.7-3.38-3.7c-6.02,0-16.38,9.24-31.09,27.71-12.14,15.36-24.81,34.85-38.01,58.47Z"/>
    <path class="cls-1" d="m674.1,399.83v2.9c0,2.36.59,4.4,1.77,6.12,2.68,3.97,7.09,5.96,13.21,5.96,13.42,0,28.94-10.31,46.55-30.93,3.11-3.54,5.74-5.32,7.89-5.32,1.18,0,2.25.59,3.22,1.77.64.86.97,1.67.97,2.42,0,4.19-5.15,11.28-15.46,21.26-8.05,7.84-16.65,14.23-25.77,19.17-9.13,4.94-17.61,7.41-25.45,7.41s-14.39-2.79-19.01-8.38c-3.11-3.87-4.67-9.13-4.67-15.79,0-18.15,8.54-35.92,25.61-53.32,13.85-14.17,25.93-21.26,36.24-21.26,2.79,0,5.32.86,7.57,2.58,2.79,2.25,4.19,5.21,4.19,8.86,0,5.69-2.63,12.67-7.89,20.94-10.85,17.18-27.17,29.05-48.97,35.6Zm3.54-12.56c7.51-2.58,13.42-5.48,17.72-8.7,7.52-5.8,13.48-12.35,17.88-19.65,1.61-2.58,2.42-4.89,2.42-6.93,0-2.15-1.02-3.22-3.06-3.22-2.79,0-6.77,2.09-11.92,6.28-9.24,7.41-16.91,18.15-23.03,32.21Z"/>
    <path class="cls-1" d="m797,406.11c-4.62,6.44-8.7,11.6-12.24,15.46-6.23,6.87-12.4,10.31-18.52,10.31-5.26,0-9.34-2.36-12.24-7.09-2.04-3.33-3.06-7.3-3.06-11.92,0-13.85,5.91-29.74,17.72-47.68,5.48-8.38,10.9-14.76,16.27-19.17,4.19-3.54,7.62-5.32,10.31-5.32,1.5,0,2.9.64,4.19,1.93,1.07,1.18,1.61,2.36,1.61,3.54,0,2.04-1.99,5.37-5.96,9.99-8.92,10.63-15.68,20.4-20.3,29.32-5.37,10.42-8.05,18.58-8.05,24.48,0,1.5.35,2.66,1.05,3.46.7.81,1.69,1.21,2.98,1.21,5.48,0,13.1-7.84,22.87-23.52,5.05-8.16,9.4-17.18,13.05-27.06,1.93-5.37,4.45-10.15,7.57-14.34,3-3.76,5.96-5.64,8.86-5.64,1.61,0,3.06.7,4.35,2.09,1.39,1.5,2.09,3.17,2.09,4.99,0,3.87-3.7,12.56-11.11,26.09-5.05,9.34-7.57,17.13-7.57,23.36,0,6.66,1.77,12.35,5.32,17.07.97,1.29,3.92,3.33,8.86,6.12,2.36,1.4,3.54,3.65,3.54,6.77,0,1.93-.83,3.6-2.5,4.99-1.67,1.4-3.68,2.09-6.04,2.09-5.37,0-10.26-2.15-14.66-6.44-3.97-3.87-6.5-9.45-7.57-16.75-.22-.97-.48-3.76-.81-8.38Z"/>
    <path class="cls-1" d="m884.14,345.22c4.4-2.79,7.68-4.72,9.83-5.8,4.4-2.15,8.7-3.22,12.89-3.22,4.72,0,8.27,1.37,10.63,4.11,2.36,2.74,3.54,6.85,3.54,12.32,0,7.52-2.63,16.54-7.89,27.06-8.16,16.65-18.04,29.75-29.64,39.3-9.77,8.05-18.95,12.08-27.54,12.08-4.73,0-9.4-1.82-14.01-5.48-14.71,29.74-27.87,60.08-39.46,91.01-2.47,7.41-5.37,11.11-8.7,11.11-1.61,0-3.22-1.08-4.83-3.22-1.18-1.5-1.77-3.17-1.77-4.99,0-5.8,7.09-24.65,21.26-56.54,21.91-49.18,42.69-90.04,62.34-122.58,4.08-6.87,6.82-11.6,8.22-14.17,3.76-6.98,7.41-10.47,10.95-10.47s5.48,2.2,5.48,6.6c0,2.47-1.29,5.8-3.87,9.99-3.12,5.37-5.58,9.66-7.41,12.89Zm-36.24,66.85c2.36,2.47,5.32,3.7,8.86,3.7,9.99,0,21.04-8.86,33.18-26.58,4.51-6.55,8.11-13.26,10.79-20.13,2.15-5.48,3.22-9.61,3.22-12.4,0-1.93-.46-3.38-1.37-4.35-.91-.97-2.33-1.45-4.27-1.45-5.05,0-11.22,3.49-18.52,10.47-6.98,6.77-13.69,16.27-20.13,28.51-5.91,11.27-9.83,18.68-11.76,22.23Z"/>
  </g>
  <g>
    <path class="cls-1" d="m479.27,642.08c-3.54,6.23-7.03,11.49-10.47,15.79-6.77,8.38-13.48,12.56-20.13,12.56-5.8,0-10.31-2.74-13.53-8.21-2.04-3.54-3.06-7.73-3.06-12.56,0-11.92,3.76-25.07,11.27-39.46,8.38-16,18.47-28.29,30.28-36.89,7.73-5.58,15.19-8.38,22.39-8.38,4.51,0,8.27,1.4,11.27,4.19,2.58,2.47,3.87,5.26,3.87,8.38,0,2.36-.91,5.64-2.74,9.83,1.61,2.25,2.42,4.24,2.42,5.96,0,2.25-1.51,5.96-4.51,11.11-3.12,5.26-6.23,12.24-9.34,20.94-3.33,9.24-4.99,16.65-4.99,22.23,0,4.51,1.34,8.21,4.03,11.11.75.75,2.95,1.99,6.6,3.71,2.68,1.29,4.03,3.54,4.03,6.76,0,2.04-.75,3.71-2.25,4.99-1.61,1.4-3.49,2.09-5.64,2.09-5.8,0-10.79-2.58-14.98-7.73-3.44-4.19-5.15-9.45-5.15-15.79,0-2.15.21-5.69.64-10.63Zm20.13-52.99c-1.29-2.36-2.69-4.11-4.19-5.23-1.5-1.13-3.12-1.69-4.83-1.69-8.16,0-17.02,7.14-26.58,21.42-10.53,15.79-15.79,29.15-15.79,40.11,0,2.68.51,4.73,1.53,6.12,1.02,1.4,2.55,2.09,4.59,2.09,5.15,0,11.17-5.48,18.04-16.43,3.87-6.01,8.64-14.87,14.34-26.58,3.76-7.62,6.5-12.67,8.21-15.14.86-1.29,2.42-2.84,4.67-4.67Z"/>
    <path class="cls-1" d="m576.24,564.92c-6.98,10.85-13.42,22.98-19.33,36.4-8.48,19.12-12.72,33.4-12.72,42.85,0,2.69.56,4.73,1.69,6.12,1.13,1.4,2.82,2.09,5.07,2.09,5.37,0,11.86-5.05,19.49-15.14,4.83-6.23,9.13-12.46,12.89-18.68,2.04-3.54,4.24-5.32,6.6-5.32,1.39,0,2.58.48,3.54,1.45.86.97,1.29,1.93,1.29,2.9,0,3.97-5.21,12.83-15.62,26.58-12.46,16.54-23.84,24.81-34.15,24.81-5.48,0-10.04-2.52-13.69-7.57-2.25-3.22-3.38-7.78-3.38-13.69,0-12.99,3.76-28.13,11.28-45.42,1.83-4.29,6.87-14.66,15.14-31.09-2.9.75-5.1,1.13-6.6,1.13-2.25,0-4.24-.54-5.96-1.61-2.36-1.5-3.54-3.38-3.54-5.64,0-2.68,1.56-4.83,4.67-6.44.86-.43,4.83-1.13,11.92-2.09,2.58-.43,6.33-1.45,11.28-3.06,3.76-6.76,9.88-15.95,18.36-27.54,4.72-6.44,8-10.63,9.83-12.56,2.58-2.68,4.83-4.03,6.76-4.03,1.39,0,2.79.75,4.19,2.25,1.29,1.4,1.93,2.79,1.93,4.19,0,2.79-3.01,8.32-9.02,16.59-3.97,5.37-6.93,9.72-8.86,13.05,11.92-3.22,20.46-4.83,25.61-4.83,5.9,0,8.86,2.47,8.86,7.41,0,2.47-1.02,4.3-3.06,5.48-1.07.64-3.87,1.18-8.38,1.61-1.83-.11-9.93,1.93-24.32,6.12-3.97,1.18-7.89,2.42-11.76,3.71Z"/>
    <path class="cls-1" d="m656.13,568.79c8.48,0,12.73,4.46,12.73,13.37,0,7.84-3.06,15.73-9.18,23.68-4.73,6.02-8.86,9.02-12.4,9.02-3.01,0-4.51-1.72-4.51-5.15,0-1.83.43-3.27,1.29-4.35.32-.43,1.61-1.66,3.87-3.7,1.93-1.83,3.92-4.56,5.96-8.21,1.39-2.47,2.09-4.46,2.09-5.96,0-1.72-.97-2.58-2.9-2.58-2.25,0-5.69,1.77-10.31,5.32-7.3,5.69-14.6,14.6-21.91,26.74-7.52,12.67-11.28,22.66-11.28,29.96,0,2.36.7,4.46,2.09,6.28,2.04,2.79,4.78,4.19,8.21,4.19,6.77,0,14.76-4.19,24-12.56,7.84-7.19,14.44-14.39,19.81-21.58,2.79-3.97,5.21-5.96,7.25-5.96,1.18,0,2.25.54,3.22,1.61.86,1.08,1.29,2.15,1.29,3.22,0,3.97-5.1,11.71-15.3,23.2-16.22,18.04-30.93,27.06-44.13,27.06-7.95,0-14.01-2.84-18.2-8.54-3-4.19-4.51-9.13-4.51-14.82,0-11.17,4.62-24.11,13.85-38.82,8.91-14.07,19.22-25.4,30.93-33.99,6.87-4.94,12.89-7.41,18.04-7.41Z"/>
    <path class="cls-1" d="m727.17,602.77c7.95-8.27,15.89-15.19,23.84-20.78,10.2-7.09,17.5-10.63,21.91-10.63,1.82,0,3.6.75,5.32,2.25,1.93,1.72,2.9,3.7,2.9,5.96,0,2.9-2.31,7.41-6.93,13.53-8.91,11.81-15.68,22.55-20.29,32.21-4.08,8.38-6.12,14.07-6.12,17.07s1.39,4.35,4.19,4.35c5.8,0,15.57-10.31,29.32-30.93,2.79-4.19,5.32-6.28,7.57-6.28s3.38,1.29,3.38,3.87c0,4.19-4.08,12.19-12.24,24-7.09,10.31-14.5,18.2-22.23,23.68-5.48,3.76-10.42,5.64-14.82,5.64-4.62,0-7.95-1.99-9.99-5.96-1.29-2.47-1.93-5.21-1.93-8.21,0-9.56,3.38-20.46,10.15-32.7,1.61-2.9,6.44-11.17,14.5-24.81-21.91,11.06-40.43,34.95-55.57,71.68-1.4,4.19-3.54,6.28-6.44,6.28-2.04,0-3.7-.7-4.99-2.09-1.29-1.5-1.93-3.33-1.93-5.48,0-3.54,3.44-13.58,10.31-30.12,12.78-30.71,24.7-56.7,35.76-77.96,11.06-21.48,23.36-43.76,36.89-66.85,3.22-5.58,5.74-9.34,7.57-11.28,1.83-1.93,3.76-2.9,5.8-2.9,1.93,0,3.6,1.02,4.99,3.06,1.07,1.5,1.61,3.22,1.61,5.15,0,3.01-1.72,7.03-5.15,12.08-11.6,17.93-23.14,37.64-34.63,59.11-12.35,22.98-19.92,38.66-22.71,47.03Z"/>
    <path class="cls-1" d="m820.43,615.66c10.52-11.28,22.66-22.28,36.4-33.02,4.94-3.87,10.2-7.46,15.79-10.79,2.79-1.61,4.56-2.42,5.32-2.42,1.61,0,3.22,1.18,4.83,3.54.97,1.29,1.45,2.47,1.45,3.54,0,1.93-2.04,4.57-6.12,7.89-10.95,8.7-16.43,15.25-16.43,19.65,0,2.47,1.39,3.7,4.19,3.7,4.62,0,12.56-3.81,23.84-11.44,1.93-1.29,3.54-1.93,4.83-1.93.86,0,1.72.43,2.58,1.29.97.97,1.45,1.99,1.45,3.06,0,3.22-4.51,8.16-13.53,14.82-9.45,7.09-18.42,10.63-26.9,10.63-3.44,0-6.6-.91-9.5-2.74-2.47-1.5-3.71-4.19-3.71-8.05,0-2.68,1.13-5.74,3.38-9.18-8.48,6.01-18.47,16.32-29.96,30.93-6.66,9.02-13.26,20.13-19.81,33.34-2.47,4.94-5.53,7.41-9.18,7.41-3.97,0-5.96-1.88-5.96-5.64s3.12-13.42,9.34-29.32c9.23-23.62,18.9-41.93,28.99-54.93,6.23-8.05,11.44-12.08,15.62-12.08,1.39,0,2.68.43,3.87,1.29,1.39,1.08,2.09,2.42,2.09,4.03s-1.08,3.87-3.22,6.76c-.43.54-3.28,4.14-8.54,10.79-4.83,6.34-8.54,12.62-11.11,18.85Z"/>
  </g>
</svg>